<?xml version="1.0" encoding="utf-8"?>
<!-- Generator: Adobe Illustrator 23.0.3, SVG Export Plug-In . SVG Version: 6.00 Build 0)  -->
<svg version="1.1" id="Layer_1" xmlns="http://www.w3.org/2000/svg" xmlns:xlink="http://www.w3.org/1999/xlink" x="0px" y="0px"
	 viewBox="0 0 104 50" style="enable-background:new 0 0 104 50;" xml:space="preserve">
<style type="text/css">
	.st0{fill:#FFFFFF;}
	.st1{fill:#f6194a;}
    .st2{fill:#f6194a;}
    .st3{fill:#f6194a;}
    
.st3 {    
    -webkit-animation: animCircle 1s infinite;
    animation: animCircle 1s infinite;
}
    
.st2 {    
    -webkit-animation: animCircle 1s infinite;
    animation: animCircle 1s infinite;
    -webkit-animation-delay:.2s;
    animation-delay:.2s;
}
    
.st1 {    
    -webkit-animation: animCircle1s infinite;
    animation: animCircle 1s infinite;
    -webkit-animation-delay:.4s;
    animation-delay:.4s;
}

@-webkit-keyframes animCircle {
    0%{-webkit-transform: translateY(100%);transform: translateY(100%); opacity: 1;}
    100%{-webkit-transform: translateY(0%);transform: translateY(0%); opacity: 1;}
}

@keyframes animCircle {
    0%{-webkit-transform: translateY(0);transform: translateY(0); opacity: 1;}
    20%{-webkit-transform: translateY(5%);transform: translateY(5%); opacity: 1;}
    50%{-webkit-transform: translateY(-20%);transform: translateY(-20%); opacity: 1;}
    100%{-webkit-transform: translateY(0%);transform: translateY(0%); opacity: 1;}
}


</style>
<path class="st0" d="M79,50H25C11.19,50,0,38.81,0,25v0C0,11.19,11.19,0,25,0l54,0c13.81,0,25,11.19,25,25v0
	C104,38.81,92.81,50,79,50z"/>
<path class="st0" d="M262-30h-395c-13.81,0-25-11.19-25-25v0c0-13.81,11.19-25,25-25h370c13.81,0,25,11.19,25,25V-30z"/>
<g>
	<circle class="st1" cx="72" cy="25" r="5"/>
	<circle class="st2" cx="52" cy="25" r="5"/>
	<circle class="st3" cx="32" cy="25" r="5"/>
</g>
</svg>
